<svg width="23" height="24" viewBox="0 0 23 24" fill="none" xmlns="http://www.w3.org/2000/svg">
<g clip-path="url(#clip0)">
<path d="M11.1554 0C4.99576 0 0 5.18047 0 11.57C0 16.682 3.19602 21.0188 7.62937 22.549C8.18621 22.656 8.36656 22.2973 8.36656 21.9926V19.8387C5.26349 20.5387 4.61741 18.4734 4.61741 18.4734C4.10984 17.1361 3.37823 16.7804 3.37823 16.7804C2.36588 16.0621 3.45539 16.0775 3.45539 16.0775C4.57558 16.1585 5.16495 17.2702 5.16495 17.2702C6.15964 19.0384 7.77439 18.5274 8.41118 18.2314C8.51065 17.4842 8.79976 16.9732 9.11955 16.6849C6.64212 16.3908 4.03733 15.3987 4.03733 10.9664C4.03733 9.70241 4.47332 8.67075 5.18634 7.86085C5.07106 7.56871 4.68899 6.39146 5.2951 4.79866C5.2951 4.79866 6.23215 4.4882 8.36377 5.98458C9.25341 5.72811 10.2072 5.59988 11.1554 5.59506C12.1036 5.59988 13.0583 5.72811 13.9498 5.98458C16.0796 4.4882 17.0148 4.79866 17.0148 4.79866C17.6218 6.39243 17.2398 7.56967 17.1245 7.86085C17.8403 8.67075 18.2726 9.70337 18.2726 10.9664C18.2726 15.4103 15.6631 16.3889 13.1792 16.6753C13.5789 17.0339 13.9443 17.7378 13.9443 18.8176V21.9926C13.9443 22.3002 14.1227 22.6618 14.6889 22.548C19.1185 21.0159 22.3108 16.6801 22.3108 11.57C22.3108 5.18047 17.316 0 11.1554 0Z" fill="#DA5C5C"/>
</g>
<defs>
<clipPath id="clip0">
<rect width="22.3108" height="23.14" fill="white"/>
</clipPath>
</defs>
</svg>
